<mxfile host="app.diagrams.net" modified="2023-09-28T10:41:55.431Z" agent="Mozilla/5.0 (Windows NT 10.0; Win64; x64; rv:109.0) Gecko/20100101 Firefox/117.0" etag="ZGUf5UdbXXYPe0-dj3tx" version="21.2.3" type="device">
  <diagram name="Страница 1" id="cUjjUj1EhB7zKsQsvFTo">
    <mxGraphModel dx="1114" dy="602" grid="1" gridSize="10" guides="1" tooltips="1" connect="1" arrows="1" fold="1" page="1" pageScale="1" pageWidth="827" pageHeight="1169" math="0" shadow="0">
      <root>
        <mxCell id="0" />
        <mxCell id="1" parent="0" />
        <mxCell id="s-OvUWTf_hIzMa2GPE4v-66" value="System login page" style="swimlane;whiteSpace=wrap;html=1;" vertex="1" parent="1">
          <mxGeometry x="414" y="150" width="296" height="290" as="geometry" />
        </mxCell>
        <mxCell id="s-OvUWTf_hIzMa2GPE4v-74" style="edgeStyle=orthogonalEdgeStyle;rounded=0;orthogonalLoop=1;jettySize=auto;html=1;exitX=1;exitY=0.5;exitDx=0;exitDy=0;entryX=0.5;entryY=0;entryDx=0;entryDy=0;" edge="1" parent="s-OvUWTf_hIzMa2GPE4v-66" source="s-OvUWTf_hIzMa2GPE4v-68" target="s-OvUWTf_hIzMa2GPE4v-72">
          <mxGeometry relative="1" as="geometry" />
        </mxCell>
        <mxCell id="s-OvUWTf_hIzMa2GPE4v-68" value="Validate module" style="rounded=1;whiteSpace=wrap;html=1;" vertex="1" parent="s-OvUWTf_hIzMa2GPE4v-66">
          <mxGeometry x="16" y="50" width="120" height="60" as="geometry" />
        </mxCell>
        <mxCell id="s-OvUWTf_hIzMa2GPE4v-73" style="edgeStyle=orthogonalEdgeStyle;rounded=0;orthogonalLoop=1;jettySize=auto;html=1;exitX=1;exitY=0.5;exitDx=0;exitDy=0;entryX=0.5;entryY=1;entryDx=0;entryDy=0;" edge="1" parent="s-OvUWTf_hIzMa2GPE4v-66" source="s-OvUWTf_hIzMa2GPE4v-70" target="s-OvUWTf_hIzMa2GPE4v-72">
          <mxGeometry relative="1" as="geometry" />
        </mxCell>
        <mxCell id="s-OvUWTf_hIzMa2GPE4v-70" value="System" style="rounded=1;whiteSpace=wrap;html=1;" vertex="1" parent="s-OvUWTf_hIzMa2GPE4v-66">
          <mxGeometry x="16" y="180" width="120" height="60" as="geometry" />
        </mxCell>
        <mxCell id="s-OvUWTf_hIzMa2GPE4v-71" value="" style="endArrow=none;dashed=1;html=1;rounded=0;entryX=0.5;entryY=1;entryDx=0;entryDy=0;exitX=0.5;exitY=0;exitDx=0;exitDy=0;" edge="1" parent="s-OvUWTf_hIzMa2GPE4v-66" source="s-OvUWTf_hIzMa2GPE4v-70" target="s-OvUWTf_hIzMa2GPE4v-68">
          <mxGeometry width="50" height="50" relative="1" as="geometry">
            <mxPoint x="-24" y="150" as="sourcePoint" />
            <mxPoint x="26" y="100" as="targetPoint" />
          </mxGeometry>
        </mxCell>
        <mxCell id="s-OvUWTf_hIzMa2GPE4v-72" value="Users database" style="rounded=1;whiteSpace=wrap;html=1;" vertex="1" parent="s-OvUWTf_hIzMa2GPE4v-66">
          <mxGeometry x="166" y="110" width="120" height="60" as="geometry" />
        </mxCell>
        <mxCell id="s-OvUWTf_hIzMa2GPE4v-69" style="edgeStyle=orthogonalEdgeStyle;rounded=0;orthogonalLoop=1;jettySize=auto;html=1;exitX=1;exitY=0.5;exitDx=0;exitDy=0;entryX=0;entryY=0.5;entryDx=0;entryDy=0;" edge="1" parent="1" source="s-OvUWTf_hIzMa2GPE4v-67" target="s-OvUWTf_hIzMa2GPE4v-68">
          <mxGeometry relative="1" as="geometry" />
        </mxCell>
        <mxCell id="s-OvUWTf_hIzMa2GPE4v-67" value="Login information" style="rounded=1;whiteSpace=wrap;html=1;" vertex="1" parent="1">
          <mxGeometry x="250" y="220" width="120" height="60" as="geometry" />
        </mxCell>
      </root>
    </mxGraphModel>
  </diagram>
</mxfile>
